<?xml version="1.0" encoding="UTF-8"?>
<svg xmlns="http://www.w3.org/2000/svg" version="1.1" viewBox="0 0 24 24">
  <defs>
    <style>
      .cls-1 {
        fill: #6f52c1;
      }
    </style>
  </defs>
  <!-- Generator: Adobe Illustrator 28.7.2, SVG Export Plug-In . SVG Version: 1.2.0 Build 154)  -->
  <g>
    <g id="Layer_1">
      <g>
        <path class="cls-1" d="M21.3,15.9c-2.2,2.2-4.4,4.4-6.6,6.5l-1.3-4c.4-.4.8-.8,1.2-1.2s.7-.7,1-1c.8-.8,1.6-1.6,2.4-2.4.3-.4.4-.9.4-1.3-.3-1.8-.5-3.7-.8-5.5,0-.4-.3-.6-.7-.7-1.8-.2-3.6-.5-5.4-.8-.7-.1-1.2,0-1.7.5-.7.7-1.5,1.5-2.2,2.2h0c-.8.7-1.5,1.5-2.3,2.2l-4-1.3c1.6-1.6,3.2-3.2,4.8-4.8.6-.6,1.2-1.1,1.8-1.7.8-.8,1.7-1.1,2.9-.9,3,.5,6,.9,9,1.4,1,.1,1,.2,1.1,1.1.4,2.9.8,5.8,1.3,8.7.1.7,0,1.4,0,2.1-.3.4-.5.8-.9,1.1Z"/>
        <path class="cls-1" d="M12.1,19.1c-.6-1.6-1.2-3-1.7-4.4q-.4-.9-1.3-1.3c-1.2-.5-2.4-.9-3.5-1.4-.1,0-.3-.1-.4-.2,0,0,0,0-.1,0,0,0-.2,0-.3,0,0,0,0,0,0,0l-1.4,1.4c-.5.5-.9.9-1.4,1.4,1.3.5,2.4,1,3.6,1.5q1.6.7,2.3,2.3c.5,1.1.9,2.4,1.4,3.7.6-.6,1.1-1.1,1.6-1.6l1.2-1.2s0,0,0,0Z"/>
      </g>
    </g>
  </g>
</svg>