<?xml version="1.0" encoding="UTF-8"?>
<svg xmlns="http://www.w3.org/2000/svg" version="1.1" viewBox="0 0 177 24">
  <defs>
    <style>
      .cls-1 {
        fill: #6f52c1;
      }

      .cls-2 {
        fill: #e8e8e8;
      }
    </style>
  </defs>
  <!-- Generator: Adobe Illustrator 28.7.2, SVG Export Plug-In . SVG Version: 1.2.0 Build 154)  -->
  <g>
    <g id="Layer_1">
      <g>
        <path class="cls-2" d="M26.4,16c-1.7,1.7-3.4,3.4-5.1,5.1l-1-3.1c.3-.3.6-.6.9-.9s.5-.5.8-.8c.6-.6,1.2-1.3,1.9-1.9.3-.3.3-.7.3-1-.2-1.4-.4-2.9-.6-4.3,0-.3-.2-.5-.5-.5-1.4-.2-2.8-.4-4.2-.6-.5,0-.9,0-1.3.4-.6.6-1.1,1.1-1.7,1.7h0c-.6.6-1.2,1.2-1.8,1.7l-3.1-1c1.3-1.3,2.5-2.5,3.7-3.7.5-.4,1-.9,1.4-1.3.6-.6,1.3-.9,2.2-.7,2.3.4,4.6.7,7,1.1.8.1.8.1.9.9.3,2.2.6,4.5,1,6.7,0,.5,0,1.1,0,1.6-.2.3-.4.6-.7.9Z"/>
        <path class="cls-1" d="M19.3,18.4c-.5-1.2-.9-2.3-1.4-3.4q-.3-.7-1-1c-.9-.4-1.8-.7-2.7-1.1-.1,0-.2,0-.3-.1,0,0,0,0-.1,0,0,0-.1,0-.2,0,0,0,0,0,0,0l-1.1,1.1c-.4.4-.7.7-1.1,1.1,1,.4,1.9.7,2.8,1.1q1.2.5,1.8,1.7c.4.9.7,1.9,1.1,2.9.4-.4.8-.9,1.2-1.3l.9-.9s0,0,0,0Z"/>
      </g>
    </g>
  </g>
</svg>